<svg width="54" height="54" viewBox="0 0 54 54" fill="none" xmlns="http://www.w3.org/2000/svg">
<path fill-rule="evenodd" clip-rule="evenodd" d="M27.83 22.6255C26.1379 22.6255 24.5162 22.3141 23.4432 22.0492C22.6509 21.8538 22.0822 21.1472 22.0603 20.3311L21.8707 13.282L22.8586 13.2553L25.9837 18.7224C26.3824 19.1515 26.7938 19.3606 27.2245 19.3393C27.9415 19.3053 28.4697 18.6344 28.4931 18.6047L28.4938 18.6038L31.3141 13.0289L32.3887 13L32.5837 20.2531C32.6037 20.9946 32.1765 21.6822 31.5209 21.9642C30.3819 22.4536 29.0863 22.6252 27.83 22.6255ZM40.2179 28.8502C40.4213 28.9317 40.636 28.971 40.8513 28.971C41.3385 28.971 41.8273 28.7693 42.1828 28.3969L47.2011 23.1465L46.4228 22.4059L40.4726 24.3378C40.4634 24.3394 39.5925 24.4504 39.0536 23.9565C38.7412 23.6701 38.595 23.229 38.6191 22.645L40.2769 16.6708L40.3026 16.5791L39.5868 15.8982L34.7106 21.0005C34.146 21.5914 34.0448 22.4918 34.4641 23.1909C35.4537 24.8395 37.5176 27.7674 40.2179 28.8502ZM50.6298 41.2455V40.1722L45.1218 37.2083L45.1216 37.2081C45.1078 37.1968 44.4337 36.6472 44.4192 35.9221C44.4107 35.4984 44.6295 35.0876 45.0704 34.7016L50.6298 31.7307V30.7433H43.5648C42.7468 30.7433 42.0243 31.2917 41.8073 32.0767C41.2945 33.9297 40.596 37.4407 41.6754 40.1389C41.9399 40.8008 42.6167 41.2455 43.3599 41.2455H50.6298ZM20.4658 22.9547C20.7357 22.2947 20.5581 21.5052 20.023 20.9905L14.7926 15.9516L14.0459 16.7236L15.9471 22.674L15.9471 22.6746C15.9503 22.702 16.0485 23.5563 15.5585 24.0851C15.2699 24.3966 14.8259 24.5393 14.2394 24.5133L8.17225 22.7977L7.48525 23.5082L12.5695 28.4056C12.9181 28.7412 13.3764 28.9153 13.8382 28.9153C14.156 28.9153 14.4754 28.8329 14.7615 28.6641C16.4193 27.686 19.3652 25.6434 20.4658 22.9547ZM4 30.9007L11.2635 30.6016C12.0089 30.5718 12.7006 30.9873 12.9924 31.6378C14.1821 34.289 13.6293 37.8261 13.1938 39.6984C13.0096 40.4919 12.3102 41.0695 11.4932 41.1031L4.43421 41.394L4.39329 40.4076L9.82517 37.2102C10.2495 36.8061 10.4513 36.3871 10.4253 35.964C10.3805 35.2364 9.67737 34.7131 9.67039 34.708L4.0444 31.9734L4 30.9007ZM29.83 30.9313C29.5214 30.6255 29.1582 30.3819 28.75 30.2068C27.9254 29.8541 26.9352 29.8545 26.1127 30.2068C25.7023 30.3826 25.3385 30.6261 25.0312 30.9316C24.7261 31.2364 24.4815 31.5995 24.3052 32.0109C24.1285 32.4213 24.0388 32.8644 24.0388 33.3272V35.5721C24.0388 36.2011 24.5513 36.713 25.1815 36.713H29.6803C30.3105 36.713 30.8231 36.2011 30.8231 35.5721V33.3272C30.8231 32.8647 30.7336 32.422 30.5569 32.0112C30.38 31.5992 30.1357 31.2361 29.8306 30.9316L29.83 30.9313ZM21.1337 38.3815H26.6034C27.1502 38.3815 27.5952 38.8255 27.5952 39.3717V40.2553C27.5952 40.8012 27.1502 41.2455 26.6034 41.2455H21.1337H20.7452H16.1589L16.1167 41.1529C15.149 39.0415 14.7967 36.6925 15.0973 34.3601C15.8205 28.754 20.4328 24.2483 26.0642 23.647C29.6568 23.2629 33.1 24.3695 35.7617 26.7619C38.3796 29.1153 39.8811 32.4805 39.8811 35.9944C39.8811 37.7887 39.503 39.5246 38.7564 41.1529L38.7146 41.2455H33.7391V33.3273C33.7391 32.4602 33.5732 31.6356 33.2456 30.8769C32.9167 30.1153 32.4615 29.4414 31.8932 28.8743C31.3238 28.3059 30.6486 27.8517 29.8867 27.5241C29.1223 27.1964 28.2964 27.0305 27.4309 27.0305C26.5653 27.0305 25.7391 27.1964 24.9753 27.5241C24.2132 27.8517 23.5398 28.3059 22.9746 28.8736C22.4107 29.4395 21.9574 30.1134 21.6273 30.8769C21.2999 31.6356 21.1337 32.4602 21.1337 33.3273V38.3815Z" fill="#00474C"/>
</svg>
